<svg width="30" height="30" xmlns="http://www.w3.org/2000/svg">
    <g fill="none" fill-rule="evenodd">
        <path d="M0 0h30v30H0z"/>
        <path d="M10.212 16.198V13.29l-.676.724L9 13.406 10.35 12h.825v4.198h-.963zM11.056 19H10.3l4.23-7h.765l-4.24 7zm2.99 0v-.735c1.717-1.27 2.134-1.679 2.134-2.14 0-.389-.288-.578-.665-.578-.467 0-.884.263-1.083.525l-.496-.64c.417-.493 1.053-.693 1.599-.693.913 0 1.599.462 1.599 1.312 0 .682-.556 1.28-1.708 2.14h1.737V19h-3.118zm5.998-2.918l-1.39 1.48-.567-.577 1.4-1.49-1.4-1.48.566-.588 1.39 1.49 1.4-1.49.557.588-1.4 1.48 1.4 1.49-.556.577-1.4-1.48z" fill="#B3B3B3" fill-rule="nonzero"/>
        <circle stroke="#B3B3B3" stroke-width="2" stroke-linecap="round" stroke-linejoin="round" cx="15" cy="15" r="12"/>
    </g>
</svg>
