<svg width="27" height="27" xmlns="http://www.w3.org/2000/svg">
    <g fill="none" fill-rule="evenodd">
        <path opacity=".2" d="M0 0h27v27H0z"/>
        <g transform="translate(3 3)">
            <circle stroke="#616161" stroke-width="2" stroke-linecap="round" stroke-linejoin="round" cx="10.5" cy="10.5" r="10.5"/>
            <path d="M11.472 6.376c.704 0 1.36-.608 1.36-1.344 0-.624-.464-1.12-1.12-1.12-.736 0-1.344.656-1.344 1.376.032.608.496 1.088 1.104 1.088zm-1.344 8.816c.544 0 1.536-.56 2.576-1.728-.08-.112-.176-.208-.272-.32-.464.336-.864.608-1.328.896.704-3.328.96-4.8.96-5.216 0-.624-.336-1.04-1.152-1.04-.736 0-1.6.688-2.592 1.808l.304.336c.496-.384.944-.72 1.392-1.024l-.752 3.872c-.08.448-.192.944-.192 1.36 0 .8.384 1.056 1.056 1.056z" fill="#616161" fill-rule="nonzero"/>
        </g>
    </g>
</svg>
