<svg width="12" height="15" xmlns="http://www.w3.org/2000/svg">
    <g fill="none" fill-rule="evenodd">
        <path opacity=".98" d="M-3 0h15v15H-3z"/>
        <path d="M4.575 11.364c0 .438-.36.792-.801.792a.796.796 0 01-.803-.792c0-.437.358-.792.803-.792.442 0 .8.355.8.792" fill="#B88B59"/>
        <path d="M1.694 4.577c.115-.356.287-.68.514-.9A2.237 2.237 0 013.808 3c.631.009 1.211.18 1.628.628.466.501.636.927.636 1.549 0 .521-.216.807-.447 1.04-.635.642-1.79 1.424-1.79 1.424v.915" stroke="#B88B59" stroke-width="1.5" stroke-linecap="round" stroke-linejoin="round"/>
    </g>
</svg>
