<svg width="26" height="26" xmlns="http://www.w3.org/2000/svg">
    <g fill="none" fill-rule="evenodd">
        <path d="M12.524 19.208v-2.952c.456.576 1.092.888 1.956.888 1.296 0 2.4-.936 2.4-2.172 0-1.38-1.056-2.016-1.86-2.1.876-.156 1.68-.816 1.68-1.824 0-1.332-1.008-2.172-2.736-2.172-1.38 0-2.964.768-2.964 2.748v7.584h1.524zm1.44-3.42c-.624 0-1.14-.276-1.44-.648v-3.516c0-.876.612-1.38 1.44-1.38.66 0 1.152.372 1.152 1.008 0 .648-.48 1.008-1.236 1.008h-.432v1.356h.48c.828 0 1.38.384 1.38 1.068 0 .66-.48 1.104-1.344 1.104z" fill="#515151" fill-rule="nonzero"/>
        <path d="M13.5 3C19.299 3 24 7.701 24 13.5S19.299 24 13.5 24c-2.502 0-4.8-.875-6.603-2.336L2 23.5l2.115-5.287A10.456 10.456 0 013 13.5C3 7.701 7.701 3 13.5 3z" stroke="#616161" stroke-width="2" stroke-linecap="round" stroke-linejoin="round"/>
    </g>
</svg>
