<svg width="17" height="15" xmlns="http://www.w3.org/2000/svg">
    <path d="M17 1.785c-.595.255-1.275.51-2.04.595.68-.425 1.275-1.19 1.53-2.04-.68.425-1.445.68-2.21.85C13.685.51 12.75 0 11.73 0 9.775 0 8.245 1.615 8.245 3.655c0 .255 0 .595.085.85-2.805-.085-5.44-1.53-7.14-3.74a4.327 4.327 0 00-.425 1.87c0 1.275.595 2.38 1.53 3.06-.595 0-1.105-.17-1.615-.425v.085c0 1.785 1.19 3.23 2.805 3.57-.255.085-.595.17-.935.17-.255 0-.425 0-.68-.085a3.55 3.55 0 003.23 2.55c-1.105.85-2.635 1.36-4.25 1.36-.255 0-.595 0-.85-.085a9.69 9.69 0 005.355 1.615c6.375 0 9.945-5.525 9.945-10.37v-.51A4.909 4.909 0 0017 1.785" fill="#D9D9D9"/>
</svg>
