<svg width="11" height="11" viewBox="0 0 11 11" fill="none" xmlns="http://www.w3.org/2000/svg">
<path fill-rule="evenodd" clip-rule="evenodd" d="M5.5 11C8.53757 11 11 8.53757 11 5.5C11 2.46243 8.53757 0 5.5 0C2.46243 0 0 2.46243 0 5.5C0 8.53757 2.46243 11 5.5 11ZM5.21103 7.65801C5.38419 7.78066 5.6159 7.78066 5.78905 7.65801L7.28905 6.59551C7.51439 6.4359 7.56767 6.12383 7.40805 5.89849C7.24844 5.67315 6.93637 5.61987 6.71103 5.77949L6.00024 6.28296V3.00001C6.00024 2.72387 5.77639 2.50001 5.50024 2.50001C5.2241 2.50001 5.00024 2.72387 5.00024 3.00001V6.28325L4.28905 5.77949C4.06371 5.61987 3.75164 5.67315 3.59203 5.89849C3.43241 6.12383 3.48569 6.4359 3.71103 6.59551L5.21103 7.65801Z" fill="#6EAC65"/>
</svg>
