<svg width="29" height="29" viewBox="0 0 29 29" fill="none" xmlns="http://www.w3.org/2000/svg">
<path d="M25.75 9.79426C25.75 14.1428 21.8401 17.6336 15.9177 23.0119L14.25 24.5L12.5823 23.0119C6.65989 17.6335 2.75 14.1427 2.75 9.79426C2.75 6.24646 5.50989 3.5 9.075 3.5C11.0874 3.5 12.9848 4.41558 14.25 5.90335C15.4256 4.52077 17.1473 3.63234 19 3.51361" stroke="#515151" stroke-width="2" stroke-linecap="round" stroke-linejoin="round"/>
<path d="M22.3532 1.13038C22.3739 0.956539 22.6261 0.956539 22.6468 1.13038L22.8198 2.58879C23.0433 4.47198 24.528 5.95673 26.4112 6.18018L27.8696 6.35322C28.0435 6.37387 28.0435 6.62613 27.8696 6.64678L26.4112 6.81982C24.528 7.04327 23.0433 8.52802 22.8198 10.4112L22.6468 11.8696C22.6261 12.0435 22.3739 12.0435 22.3532 11.8696L22.1802 10.4112C21.9567 8.52802 20.472 7.04327 18.5888 6.81982L17.1304 6.64678C16.9565 6.62613 16.9565 6.37387 17.1304 6.35322L18.5888 6.18018C20.472 5.95673 21.9567 4.47198 22.1802 2.58879L22.3532 1.13038Z" fill="#EFF24A"/>
</svg>
