<svg width="30" height="30" viewBox="0 0 30 30" fill="none" xmlns="http://www.w3.org/2000/svg">
<path d="M23.4838 7.01511H23.486C25.6581 9.18728 27 12.1875 27 15.5C27 22.127 21.6281 27.5011 14.9989 27.5011C8.37187 27.5011 3 22.127 3 15.5C3 8.87294 8.37187 3.4989 14.9989 3.4989" stroke="#B3B3B3" stroke-width="2" stroke-linecap="round" stroke-linejoin="round"/>
<path fill-rule="evenodd" clip-rule="evenodd" d="M15 6.4989V0.498901L20 3.4989L15 6.4989Z" fill="#B3B3B3" stroke="#B3B3B3" stroke-linecap="round" stroke-linejoin="round"/>
<path d="M11.1778 20.098C10.6178 20.098 10.1838 19.636 10.1838 19.104V13.224L9.16179 14.274C9.00779 14.428 8.79779 14.526 8.57379 14.526C8.11179 14.526 7.74779 14.148 7.74779 13.7C7.74779 13.462 7.84579 13.266 7.98579 13.112L10.1978 10.9C10.4078 10.69 10.7018 10.564 11.0238 10.564C11.6538 10.564 12.1718 11.082 12.1718 11.712V19.104C12.1718 19.636 11.7238 20.098 11.1778 20.098ZM14.4426 19.314C14.2186 19.174 14.0506 18.88 14.0506 18.586C14.0506 18.096 14.4426 17.704 14.9326 17.704C15.1006 17.704 15.2686 17.746 15.4086 17.844C15.9826 18.25 16.6406 18.432 17.3686 18.432C18.4746 18.432 19.1046 17.802 19.1046 17.032C19.1046 16.178 18.4886 15.604 17.4246 15.604C16.8086 15.604 16.2906 15.758 15.8006 16.136C15.6186 16.276 15.3946 16.346 15.1426 16.346C14.5546 16.346 14.0786 15.87 14.0786 15.282V11.712C14.0786 11.04 14.4426 10.662 15.1286 10.662H19.7346C20.1966 10.662 20.6026 11.04 20.6026 11.53C20.6026 11.992 20.1966 12.37 19.7346 12.37H16.0246V14.708C16.5146 14.274 17.2706 13.924 18.1246 13.924C19.7066 13.924 21.1206 15.058 21.1206 16.948C21.1206 18.922 19.6366 20.168 17.3826 20.168C16.1646 20.168 15.2126 19.86 14.4426 19.314Z" fill="#B3B3B3"/>
</svg>
