<svg width="11" height="11" viewBox="0 0 11 11" fill="none" xmlns="http://www.w3.org/2000/svg">
<g opacity="1">
<path fill-rule="evenodd" clip-rule="evenodd" d="M11 5.5C11 8.53757 8.53757 11 5.5 11C2.46243 11 0 8.53757 0 5.5C0 2.46243 2.46243 0 5.5 0C8.53757 0 11 2.46243 11 5.5ZM5.5 10C7.98528 10 10 7.98528 10 5.5C10 3.01472 7.98528 1 5.5 1C3.01472 1 1 3.01472 1 5.5C1 7.98528 3.01472 10 5.5 10Z" fill="#808080"/>
<path fill-rule="evenodd" clip-rule="evenodd" d="M4.35355 3.64645C4.15829 3.45118 3.84171 3.45118 3.64645 3.64645C3.45118 3.84171 3.45118 4.15829 3.64645 4.35355L4.7929 5.50001L3.64645 6.64646C3.45118 6.84172 3.45118 7.15831 3.64645 7.35357C3.84171 7.54883 4.15829 7.54883 4.35355 7.35357L5.50001 6.20711L6.64645 7.35355C6.84171 7.54882 7.15829 7.54882 7.35355 7.35355C7.54882 7.15829 7.54882 6.84171 7.35355 6.64645L6.20711 5.50001L7.35355 4.35357C7.54882 4.15831 7.54882 3.84172 7.35355 3.64646C7.15829 3.4512 6.84171 3.4512 6.64645 3.64646L5.50001 4.7929L4.35355 3.64645Z" fill="#808080"/>
</g>
</svg>
