<svg width="29" height="29" viewBox="0 0 29 29" fill="none" xmlns="http://www.w3.org/2000/svg">
<path d="M20.0398 14.9736C20.0398 14.9736 22.2388 11.7702 22.4925 10.6744C22.5771 10.3372 22.408 10.0843 22.0697 10.0843H20.1244C19.7015 10.0843 19.5323 10.2529 19.3632 10.5901C19.3632 10.5901 18.3483 12.8661 17.0796 14.2992C16.6567 14.7207 16.4876 14.8893 16.2338 14.8893C16.0647 14.8893 15.9801 14.7207 15.9801 14.2992V10.6744C15.9801 10.1686 15.8955 10 15.4726 10H12.3433C12.1741 10 12.005 10.1686 12.005 10.3372C12.005 10.843 12.6816 10.9273 12.6816 12.276V14.9736C12.6816 15.4793 12.6816 15.7322 12.4279 15.7322C11.7512 15.7322 10.1443 13.3719 9.29851 10.7587C9.12935 10.2529 8.9602 10.0843 8.45274 10.0843H6.50746C6.25373 10.0843 6 10.2529 6 10.5901C6 11.0959 6.59204 13.5405 8.9602 16.8281C10.5672 19.0198 12.6816 20.2 14.5423 20.2C15.7264 20.2 15.9801 20.0314 15.9801 19.5256V17.8397C15.9801 17.4182 16.1493 17.2496 16.403 17.2496C16.6567 17.2496 17.1642 17.3339 18.2637 18.4298C19.5323 19.6942 19.6169 20.2 20.3781 20.2H22.5771C22.8308 20.2 23 20.1157 23 19.6942C23 19.1884 22.3234 18.3455 21.393 17.2496C20.9701 16.7438 20.3781 16.1537 20.1244 15.8165C19.7861 15.4793 19.8706 15.3107 20.0398 14.9736" fill="white"/>
</svg>
