<svg width="27" height="27" viewBox="0 0 27 27" fill="none" xmlns="http://www.w3.org/2000/svg">
<path fill-rule="evenodd" clip-rule="evenodd" d="M5 2C5.55228 2 6 2.44772 6 3V14C6 14.5523 5.55228 15 5 15C4.44772 15 4 14.5523 4 14V3C4 2.44772 4.44772 2 5 2Z" fill="#B3B3B3"/>
<path fill-rule="evenodd" clip-rule="evenodd" d="M14 14C14.5523 14 15 14.4477 15 15V25C15 25.5523 14.5523 26 14 26C13.4477 26 13 25.5523 13 25V15C13 14.4477 13.4477 14 14 14Z" fill="#B3B3B3"/>
<path fill-rule="evenodd" clip-rule="evenodd" d="M23 17C23.5523 17 24 17.4477 24 18V25C24 25.5523 23.5523 26 23 26C22.4477 26 22 25.5523 22 25V18C22 17.4477 22.4477 17 23 17Z" fill="#B3B3B3"/>
<path fill-rule="evenodd" clip-rule="evenodd" d="M5 23C5.55228 23 6 23.4477 6 24V25C6 25.5523 5.55228 26 5 26C4.44772 26 4 25.5523 4 25V24C4 23.4477 4.44772 23 5 23Z" fill="#B3B3B3"/>
<path fill-rule="evenodd" clip-rule="evenodd" d="M14 2C14.5523 2 15 2.44772 15 3V5C15 5.55228 14.5523 6 14 6C13.4477 6 13 5.55228 13 5V3C13 2.44772 13.4477 2 14 2Z" fill="#B3B3B3"/>
<path fill-rule="evenodd" clip-rule="evenodd" d="M23 2C23.5523 2 24 2.44772 24 3V8C24 8.55228 23.5523 9 23 9C22.4477 9 22 8.55228 22 8V3C22 2.44772 22.4477 2 23 2Z" fill="#B3B3B3"/>
<path d="M7 19C7 20.1046 6.10457 21 5 21C3.89543 21 3 20.1046 3 19C3 17.8954 3.89543 17 5 17C6.10457 17 7 17.8954 7 19Z" fill="#B3B3B3"/>
<path d="M16 10C16 11.1046 15.1046 12 14 12C12.8954 12 12 11.1046 12 10C12 8.89543 12.8954 8 14 8C15.1046 8 16 8.89543 16 10Z" fill="#B3B3B3"/>
<path d="M25 13C25 14.1046 24.1046 15 23 15C21.8954 15 21 14.1046 21 13C21 11.8954 21.8954 11 23 11C24.1046 11 25 11.8954 25 13Z" fill="#B3B3B3"/>
</svg>
