<svg width="29" height="29" viewBox="0 0 29 29" fill="none" xmlns="http://www.w3.org/2000/svg">
<path fill-rule="evenodd" clip-rule="evenodd" d="M21.1722 7H7.82786C7.3706 7 7 7.3706 7 7.82786V21.1722C7 21.6294 7.3706 22.0001 7.82786 22.0001H15.012V16.1912H13.0572V13.9274H15.012V12.2579C15.012 10.3205 16.1953 9.26556 17.9236 9.26556C18.7515 9.26556 19.463 9.32716 19.6704 9.3547V11.3794L18.4717 11.38C17.5318 11.38 17.3497 11.8266 17.3497 12.4821V13.9274H19.5915L19.2996 16.1912H17.3497V22.0001H21.1722C21.6294 22.0001 22 21.6294 22 21.1722V7.82786C22 7.3706 21.6294 7 21.1722 7" fill="white"/>
</svg>
