<svg fill="none" height="28" viewBox="0 0 28 28" width="28" xmlns="http://www.w3.org/2000/svg"><path d="m23 20.8237c0 1.0233 0 1.535-.2115 1.8062-.1842.236-.4643.3771-.7635.3846-.3439.0086-.755-.296-1.5774-.9051l-5.4952-4.0706c-.3419-.2532-.5128-.3798-.7001-.4287-.1654-.0431-.3392-.0431-.5046 0-.1873.0489-.3582.1755-.7001.4287l-5.49524 4.0706c-.82233.6091-1.2335.9137-1.57731.9051-.29924-.0075-.57939-.1486-.7635-.3846-.21155-.2712-.21155-.7829-.21155-1.8062v-15.2237c0-.56005 0-.84008.10899-1.05399.09588-.18816.24886-.34114.43702-.43702.21391-.10899.49394-.10899 1.05399-.10899h14.8c.5601 0 .8401 0 1.054.10899.1882.09588.3411.24886.437.43702.109.21391.109.49394.109 1.05399z" style="fill-rule:evenodd;clip-rule:evenodd;stroke:#b3b3b3;stroke-width:2;stroke-linecap:round;stroke-linejoin:round"/></svg>