<svg width="28" height="28" viewBox="0 0 28 28" fill="none" xmlns="http://www.w3.org/2000/svg">
<path d="M4 7.2V20.8C4 21.9201 4 22.4802 4.21799 22.908C4.40973 23.2843 4.71569 23.5903 5.09202 23.782C5.51984 24 6.0799 24 7.2 24H20.8C21.9201 24 22.4802 24 22.908 23.782C23.2843 23.5903 23.5903 23.2843 23.782 22.908C24 22.4802 24 21.9201 24 20.8V13.3255C24 12.8363 24 12.5917 23.9447 12.3615C23.8957 12.1575 23.8149 11.9624 23.7053 11.7834C23.5816 11.5816 23.4086 11.4086 23.0627 11.0627L16.9373 4.93726C16.5914 4.59135 16.4184 4.4184 16.2166 4.29472C16.0376 4.18506 15.8425 4.10425 15.6385 4.05526C15.4083 4 15.1637 4 14.6745 4H7.2C6.0799 4 5.51984 4 5.09202 4.21799C4.71569 4.40973 4.40973 4.71569 4.21799 5.09202C4 5.51984 4 6.0799 4 7.2Z" stroke="#B3B3B3" stroke-width="2" stroke-linecap="round" stroke-linejoin="round"/>
<path d="M7.5536 21.1823C7.24605 21.1823 7 20.9286 7 20.6364V16.5767C7 16.2076 7.2076 16 7.57667 16H9.39895C10.5138 16 11.1213 16.7535 11.1213 17.6531C11.1213 18.545 10.5062 19.2909 9.39895 19.2909H8.09183V20.6364C8.09183 20.9286 7.85347 21.1823 7.5536 21.1823ZM10.0064 17.6454C10.0064 17.2225 9.68344 16.9381 9.25286 16.9381H8.09183V18.3528H9.25286C9.68344 18.3528 10.0064 18.076 10.0064 17.6454Z" fill="#B3B3B3"/>
<path d="M12.3748 21.1285C12.0057 21.1285 11.7981 20.9209 11.7981 20.5442V16.5767C11.7981 16.2076 12.0057 16 12.3748 16H13.8203C15.4273 16 16.5422 17.0226 16.5422 18.5681C16.5422 20.1136 15.4273 21.1285 13.8203 21.1285H12.3748ZM12.8899 20.1674H13.8203C14.8352 20.1674 15.4273 19.437 15.4273 18.5681C15.4273 17.6608 14.8737 16.9611 13.8203 16.9611H12.8899V20.1674Z" fill="#B3B3B3"/>
<path d="M17.8706 21.1823C17.563 21.1823 17.317 20.9286 17.317 20.6364V16.5767C17.317 16.2076 17.5246 16 17.8937 16H20.5233C20.7847 16 21 16.2076 21 16.4767C21 16.7304 20.7847 16.9381 20.5233 16.9381H18.4088V18.0529H20.4695C20.7309 18.0529 20.9462 18.2605 20.9462 18.522C20.9462 18.7834 20.7309 18.991 20.4695 18.991H18.4088V20.6364C18.4088 20.9286 18.1705 21.1823 17.8706 21.1823Z" fill="#B3B3B3"/>
<path d="M24 12H17.3333C16.597 12 16 11.403 16 10.6667V4" stroke="#B3B3B3" stroke-width="1.5" stroke-linecap="round" stroke-linejoin="round"/>
</svg>
