<svg width="29" height="29" viewBox="0 0 29 29" fill="none" xmlns="http://www.w3.org/2000/svg">
<path fill-rule="evenodd" clip-rule="evenodd" d="M7 10C7 8.34315 8.34315 7 10 7H19C20.6569 7 22 8.34315 22 10V19C22 20.6569 20.6569 22 19 22H10C8.34315 22 7 20.6569 7 19V10ZM14.5001 11.3026C12.7342 11.3026 11.3027 12.7341 11.3027 14.5C11.3027 16.2658 12.7342 17.6973 14.5001 17.6973C16.266 17.6973 17.6975 16.2658 17.6975 14.5C17.6975 12.7341 16.266 11.3026 14.5001 11.3026ZM9.80273 14.5C9.80273 11.9057 11.9058 9.80261 14.5001 9.80261C17.0944 9.80261 19.1975 11.9057 19.1975 14.5C19.1975 17.0943 17.0944 19.1973 14.5001 19.1973C11.9058 19.1973 9.80273 17.0943 9.80273 14.5ZM19.2367 10.5525C19.6728 10.5525 20.0262 10.1991 20.0262 9.76305C20.0262 9.32703 19.6728 8.97357 19.2367 8.97357C18.8007 8.97357 18.4473 9.32703 18.4473 9.76305C18.4473 10.1991 18.8007 10.5525 19.2367 10.5525Z" fill="white"/>
</svg>
