<svg width="29" height="29" viewBox="0 0 29 29" fill="none" xmlns="http://www.w3.org/2000/svg">
<path d="M22 8.72941C21.475 8.97647 20.875 9.22353 20.2 9.30588C20.8 8.89412 21.325 8.15294 21.55 7.32941C20.95 7.74118 20.275 7.98824 19.6 8.15294C19.075 7.49412 18.25 7 17.35 7C15.625 7 14.275 8.56471 14.275 10.5412C14.275 10.7882 14.275 11.1176 14.35 11.3647C11.875 11.2824 9.55 9.88235 8.05 7.74118C7.825 8.23529 7.675 8.89412 7.675 9.55294C7.675 10.7882 8.2 11.8588 9.025 12.5176C8.5 12.5176 8.05 12.3529 7.6 12.1059C7.6 12.1059 7.6 12.1059 7.6 12.1882C7.6 13.9176 8.65 15.3176 10.075 15.6471C9.85 15.7294 9.55 15.8118 9.25 15.8118C9.025 15.8118 8.875 15.8118 8.65 15.7294C9.025 17.1294 10.15 18.1176 11.5 18.2C10.525 19.0235 9.175 19.5176 7.75 19.5176C7.525 19.5176 7.225 19.5176 7 19.4353C8.35 20.4235 10 21 11.725 21C17.35 21 20.5 15.6471 20.5 10.9529C20.5 10.7882 20.5 10.6235 20.5 10.4588C21.1 10.0471 21.625 9.47059 22 8.72941Z" fill="white"/>
</svg>
