<svg width="28" height="28" viewBox="0 0 28 28" fill="none" xmlns="http://www.w3.org/2000/svg">
<rect x="4" y="4" width="20" height="20" rx="5" stroke="#B3B3B3" stroke-width="2" stroke-linecap="round" stroke-linejoin="round"/>
<path d="M18.7639 8.85406C18.6185 8.63722 18.5406 8.38212 18.5402 8.12103C18.5396 7.77102 18.678 7.43511 18.9251 7.18716C19.1721 6.93921 19.5075 6.79953 19.8575 6.79883C20.1186 6.79831 20.374 6.87523 20.5914 7.01985C20.8087 7.16448 20.9783 7.37033 21.0787 7.61135C21.1791 7.85237 21.2057 8.11775 21.1553 8.37392C21.1048 8.63009 20.9795 8.86554 20.7953 9.0505C20.611 9.23545 20.376 9.36161 20.12 9.413C19.864 9.4644 19.5985 9.43872 19.3572 9.33923C19.1158 9.23974 18.9093 9.0709 18.7639 8.85406Z" fill="#B3B3B3"/>
<path fill-rule="evenodd" clip-rule="evenodd" d="M14 19C16.7614 19 19 16.7614 19 14C19 11.2386 16.7614 9 14 9C11.2386 9 9 11.2386 9 14C9 16.7614 11.2386 19 14 19Z" stroke="#B3B3B3" stroke-width="2" stroke-linecap="round" stroke-linejoin="round"/>
</svg>
