<svg width="30" height="30" xmlns="http://www.w3.org/2000/svg">
    <g fill="none" fill-rule="evenodd">
        <path d="M0 0h30v30H0z"/>
        <circle stroke="#B3B3B3" stroke-width="2.5" stroke-linecap="round" stroke-linejoin="round" cx="15" cy="15" r="13"/>
        <path d="M16.842 10.865a.883.883 0 00-.628.264.903.903 0 00-.262.637v6.577c0 .249.1.474.261.637.169.17.407.264 1.083.264a.883.883 0 00.629-.264.903.903 0 00.261-.637v-6.577a.77.77 0 00-.345-.656c-.223-.154-.553-.245-.999-.245zm-4.381 0a.883.883 0 00-.629.264.903.903 0 00-.261.637v6.577c0 .249.1.474.26.637.169.17.407.264 1.084.264a.883.883 0 00.628-.264.903.903 0 00.262-.637v-6.577a.77.77 0 00-.345-.656c-.223-.154-.554-.245-1-.245z" stroke="#B3B3B3" stroke-width=".2" fill="#B3B3B3"/>
    </g>
</svg>
