<svg width="28" height="28" xmlns="http://www.w3.org/2000/svg">
    <g fill="none" fill-rule="evenodd" opacity=".7">
        <path d="M28 14c0 7.732-6.268 14-14 14S0 21.732 0 14 6.268 0 14 0s14 6.268 14 14" stroke-opacity=".15" stroke="#FFF" stroke-width=".5" fill="#000"/>
        <path d="M18.726 21H9.275A2.276 2.276 0 017 18.725v-9.45A2.276 2.276 0 019.275 7h9.45A2.275 2.275 0 0121 9.275v9.45A2.275 2.275 0 0118.726 21z" stroke="#FEFEFE" stroke-width="2" stroke-linecap="round" stroke-linejoin="round"/>
        <path stroke="#FEFEFE" stroke-linecap="round" stroke-linejoin="round" d="M7 17.57l3.97-3.97 1.715 1.715L18.37 21"/>
        <path stroke="#FEFEFE" stroke-linecap="round" stroke-linejoin="round" d="M12.685 15.315l4.19-4.19L21 15.25"/>
        <path d="M11.865 10.269a.894.894 0 11-1.787 0 .894.894 0 011.787 0" fill="#FEFEFE"/>
    </g>
</svg>
