<svg width="28" height="28" viewBox="0 0 28 28" fill="none" xmlns="http://www.w3.org/2000/svg">
<path d="M14 6.81081C10.2168 3.78014 5.50322 3.73055 1.68955 6.66205C1.56922 6.75455 1.5 6.89914 1.5 7.05092V22.4588C1.5 22.8782 1.99137 23.1173 2.34074 22.8852C5.92167 20.5067 10.1715 20.6299 13.6831 23.2547C13.8706 23.3949 14.1294 23.3949 14.3169 23.2547C17.8285 20.6299 22.0783 20.5067 25.6593 22.8852C26.0086 23.1173 26.5 22.8782 26.5 22.4588V7.05092C26.5 6.89914 26.4308 6.75455 26.3104 6.66205C22.4968 3.73055 17.7832 3.78014 14 6.81081ZM14 6.81081V23" stroke="#B3B3B3" stroke-width="2" stroke-linejoin="round"/>
</svg>
