<svg width="29" height="29" viewBox="0 0 29 29" fill="none" xmlns="http://www.w3.org/2000/svg">
<path fill-rule="evenodd" clip-rule="evenodd" d="M7.84799 8.37865C9.18153 8.00001 14.4947 8 14.4947 8C14.4947 8 19.8184 8.00002 21.1519 8.40161C21.8765 8.60814 22.4539 9.23912 22.6429 10.0308C23.0104 11.488 22.9999 14.5172 22.9999 14.5172C22.9999 14.5172 22.9999 17.5349 22.6429 18.9807C22.4539 19.7838 21.8765 20.4033 21.1519 20.6214C19.8184 21 14.4947 21 14.4947 21C14.4947 21 9.19203 21 7.84799 20.6099C7.12347 20.3919 6.54603 19.7609 6.34652 18.9692C6.00001 17.5349 6 14.5057 6 14.5057C6 14.5057 6.00001 11.488 6.34652 10.0308C6.54603 9.23912 7.13397 8.59665 7.84799 8.37865ZM17.2248 14.5059L12.8041 11.7178V17.2825L17.2248 14.5059Z" fill="white"/>
</svg>
