<svg width="28" height="28" viewBox="0 0 28 28" fill="none" xmlns="http://www.w3.org/2000/svg">
<path fill-rule="evenodd" clip-rule="evenodd" d="M23 20.8237C23 21.847 23 22.3587 22.7885 22.6299C22.6043 22.8659 22.3242 23.007 22.025 23.0145C21.6811 23.0231 21.27 22.7185 20.4476 22.1094L14.9524 18.0388C14.6105 17.7856 14.4396 17.659 14.2523 17.6101C14.0869 17.567 13.9131 17.567 13.7477 17.6101C13.5604 17.659 13.3895 17.7856 13.0476 18.0388L7.55236 22.1094C6.73003 22.7185 6.31886 23.0231 5.97505 23.0145C5.67581 23.007 5.39566 22.8659 5.21155 22.6299C5 22.3587 5 21.847 5 20.8237V5.6C5 5.03995 5 4.75992 5.10899 4.54601C5.20487 4.35785 5.35785 4.20487 5.54601 4.10899C5.75992 4 6.03995 4 6.6 4H21.4C21.9601 4 22.2401 4 22.454 4.10899C22.6422 4.20487 22.7951 4.35785 22.891 4.54601C23 4.75992 23 5.03995 23 5.6V20.8237Z" fill="#B3B3B3" stroke="#B3B3B3" stroke-width="2" stroke-linecap="round" stroke-linejoin="round"/>
</svg>
