<svg width="24" height="24" viewBox="0 0 24 24" fill="none" xmlns="http://www.w3.org/2000/svg">
<path d="M11.2882 14.3217L11.9931 13.6124L10.5744 12.2026L9.86955 12.9119L11.2882 14.3217ZM1.04069 21.796C0.651386 22.1877 0.653362 22.8209 1.0451 23.2102C1.43684 23.5995 2.07001 23.5975 2.45931 23.2058L1.04069 21.796ZM14.5011 11.0886C14.8904 10.6969 14.8885 10.0637 14.4967 9.67443C14.105 9.28512 13.4718 9.2871 13.0825 9.67884L14.5011 11.0886ZM12.3786 10.3872L11.6737 11.0965L13.0923 12.5063L13.7972 11.797L12.3786 10.3872ZM13.6802 1.49927C13.6802 0.946983 13.2325 0.499267 12.6802 0.499268C12.1279 0.499268 11.6802 0.946983 11.6802 1.49927L13.6802 1.49927ZM11.6802 4.78701C11.6802 5.33929 12.1279 5.78701 12.6802 5.78701C13.2325 5.78701 13.6802 5.33929 13.6802 4.78701L11.6802 4.78701ZM13.6801 17.9991C13.6801 17.4468 13.2324 16.9991 12.6801 16.9991C12.1278 16.9991 11.6801 17.4468 11.6801 17.9991H13.6801ZM11.6801 21.2868C11.6801 21.8391 12.1278 22.2868 12.6801 22.2868C13.2324 22.2868 13.6801 21.8391 13.6801 21.2868H11.6801ZM22.75 12.3614C23.3023 12.3614 23.75 11.9137 23.75 11.3614C23.75 10.8092 23.3023 10.3614 22.75 10.3614L22.75 12.3614ZM19.4156 10.3614C18.8633 10.3614 18.4156 10.8092 18.4156 11.3614C18.4156 11.9137 18.8633 12.3614 19.4156 12.3614L19.4156 10.3614ZM6.07682 12.5001C6.6291 12.5001 7.07682 12.0523 7.07682 11.5001C7.07682 10.9478 6.6291 10.5001 6.07682 10.5001L6.07682 12.5001ZM2.74245 10.5001C2.19016 10.5001 1.74244 10.9478 1.74244 11.5001C1.74244 12.0523 2.19016 12.5001 2.74244 12.5001L2.74245 10.5001ZM20.5223 5.21201C20.9155 4.82424 20.92 4.1911 20.5322 3.79783C20.1445 3.40457 19.5113 3.40011 19.118 3.78787L20.5223 5.21201ZM16.8032 6.07039C16.4099 6.45815 16.4054 7.0913 16.7932 7.48456C17.181 7.87783 17.8141 7.88229 18.2074 7.49452L16.8032 6.07039ZM19.1179 18.9936C19.5112 19.3814 20.1443 19.377 20.5321 18.9837C20.9198 18.5904 20.9154 17.9573 20.5221 17.5695L19.1179 18.9936ZM18.2072 15.287C17.814 14.8992 17.1808 14.9037 16.793 15.297C16.4053 15.6902 16.4097 16.3234 16.803 16.7111L18.2072 15.287ZM7.28507 7.49483C7.67833 7.88259 8.31148 7.87813 8.69924 7.48487C9.08701 7.0916 9.08255 6.45845 8.68928 6.07069L7.28507 7.49483ZM6.37439 3.78817C5.98113 3.40041 5.34798 3.40487 4.96022 3.79813C4.57245 4.1914 4.57691 4.82455 4.97017 5.21231L6.37439 3.78817ZM9.86955 12.9119L1.04069 21.796L2.45931 23.2058L11.2882 14.3217L9.86955 12.9119ZM13.0825 9.67884L12.3786 10.3872L13.7972 11.797L14.5011 11.0886L13.0825 9.67884ZM11.6802 1.49927L11.6802 4.78701L13.6802 4.78701L13.6802 1.49927L11.6802 1.49927ZM11.6801 17.9991V21.2868H13.6801V17.9991H11.6801ZM22.75 10.3614L19.4156 10.3614L19.4156 12.3614L22.75 12.3614L22.75 10.3614ZM6.07682 10.5001L2.74245 10.5001L2.74244 12.5001L6.07682 12.5001L6.07682 10.5001ZM19.118 3.78787L16.8032 6.07039L18.2074 7.49452L20.5223 5.21201L19.118 3.78787ZM20.5221 17.5695L18.2072 15.287L16.803 16.7111L19.1179 18.9936L20.5221 17.5695ZM8.68928 6.07069L6.37439 3.78817L4.97017 5.21231L7.28507 7.49483L8.68928 6.07069Z" fill="#B3B3B3"/>
</svg>
