<svg width="17" height="15" xmlns="http://www.w3.org/2000/svg">
    <path d="M13.545 10.91c-.211.49-.462.94-.752 1.354-.396.564-.72.954-.97 1.171-.387.356-.802.539-1.246.55-.319 0-.704-.092-1.151-.276-.45-.183-.862-.274-1.24-.274-.395 0-.82.091-1.274.274-.454.184-.82.28-1.1.29-.427.018-.851-.17-1.275-.564-.27-.236-.609-.64-1.014-1.213a8.391 8.391 0 01-1.073-2.13C2.15 9.218 2 8.372 2 7.553c0-.938.203-1.747.609-2.425a3.568 3.568 0 011.275-1.29 3.43 3.43 0 011.724-.487c.338 0 .782.105 1.333.31.55.207.903.312 1.058.312.115 0 .508-.123 1.172-.367.629-.226 1.16-.32 1.594-.283 1.178.095 2.063.56 2.652 1.396-1.054.639-1.575 1.532-1.565 2.68.01.893.334 1.636.97 2.226.29.274.612.486.97.636-.077.226-.16.442-.247.65zM10.844.28c0 .7-.256 1.354-.766 1.96-.615.718-1.36 1.134-2.166 1.068a2.18 2.18 0 01-.017-.265c0-.672.293-1.391.813-1.98.26-.297.59-.545.99-.742.398-.195.776-.303 1.131-.321.01.094.015.187.015.28z" fill="#AAA"/>
</svg>
