<svg width="29" height="29" viewBox="0 0 29 29" fill="none" xmlns="http://www.w3.org/2000/svg">
<path fill-rule="evenodd" clip-rule="evenodd" d="M15.72 19.0001H13.672L12.888 16.9521H7.832L7.048 19.0001H5L9.192 8.32812H11.528L15.72 19.0001ZM12.3601 15.3041L10.3601 9.91211L8.36011 15.3041H12.3601ZM21.56 19.0001H23.24V13.8801C23.24 11.8001 21.736 11.0801 20.024 11.0801C18.792 11.0801 17.672 11.4801 16.776 12.3281L17.464 13.4961C18.136 12.8401 18.888 12.5201 19.752 12.5201C20.824 12.5201 21.56 13.0641 21.56 13.9601V15.1121C21 14.4561 20.104 14.1201 19.064 14.1201C17.8 14.1201 16.376 14.8561 16.376 16.6321C16.376 18.3441 17.8 19.1921 19.064 19.1921C20.088 19.1921 20.984 18.8241 21.56 18.1681V19.0001ZM19.72 18.04C20.456 18.04 21.176 17.768 21.56 17.24V16.072C21.176 15.544 20.456 15.272 19.72 15.272C18.776 15.272 18.072 15.816 18.072 16.664C18.072 17.496 18.776 18.04 19.72 18.04Z" fill="white"/>
</svg>
