<svg width="280" height="280" xmlns="http://www.w3.org/2000/svg">
    <defs>
        <filter x="-27.1%" y="-27.6%" width="154.2%" height="155.2%" filterUnits="objectBoundingBox" id="a">
            <feGaussianBlur stdDeviation="17" in="SourceGraphic"/>
        </filter>
    </defs>
    <g fill="none" fill-rule="evenodd">
        <path d="M30 169.395c-11.47-28.766-9.515-60.275 19.27-73.543 28.787-13.27 33.792-27.056 44.777-47.655 10.986-20.599 47.887-33.057 78.251-10.58 30.365 22.478 55.163 111.126 26.706 135.055-28.457 23.93-70.087 46.224-105.349 34.505C58.394 195.458 41.47 198.161 30 169.395z" fill="#ADADAD" filter="url(#a)" transform="rotate(-108 136.99 120.67)"/>
        <path d="M138.871 127.47s-9.425 11.884-21.05 11.884c-11.627 0-21.052-11.885-21.052-11.885s9.425-11.884 21.051-11.884c11.626 0 21.051 11.884 21.051 11.884" fill="#FFF"/>
        <path d="M125.678 127.468c0 4.312-3.54 7.807-7.909 7.807-4.367 0-7.908-3.495-7.908-7.807s3.54-7.807 7.908-7.807 7.91 3.495 7.91 7.807" fill="#000"/>
        <path d="M119.82 127.468c0 1.118-.918 2.024-2.05 2.024-1.133 0-2.05-.906-2.05-2.024 0-1.118.917-2.024 2.05-2.024 1.132 0 2.05.906 2.05 2.024" fill="#000"/>
        <path d="M185.068 127.47s-9.425 11.884-21.051 11.884c-11.626 0-21.051-11.885-21.051-11.885s9.425-11.884 21.05-11.884c11.627 0 21.052 11.884 21.052 11.884" fill="#FFF"/>
        <path d="M171.875 127.468c0 4.312-3.541 7.807-7.909 7.807s-7.909-3.495-7.909-7.807 3.541-7.807 7.91-7.807c4.367 0 7.908 3.495 7.908 7.807" fill="#000"/>
        <path d="M166.016 127.468c0 1.118-.918 2.024-2.05 2.024-1.132 0-2.05-.906-2.05-2.024 0-1.118.918-2.024 2.05-2.024 1.132 0 2.05.906 2.05 2.024" fill="#000"/>
    </g>
</svg>
