<svg width="17" height="15" xmlns="http://www.w3.org/2000/svg">
    <path d="M17 1.73c-.595.246-1.275.494-2.04.576A3.65 3.65 0 0016.49.329c-.68.412-1.445.66-2.21.824C13.685.494 12.75 0 11.73 0 9.775 0 8.245 1.565 8.245 3.541c0 .247 0 .577.085.824C5.525 4.282 2.89 2.882 1.19.74a4.085 4.085 0 00-.425 1.812c0 1.235.595 2.306 1.53 2.965-.595 0-1.105-.165-1.615-.412v.082c0 1.73 1.19 3.13 2.805 3.46a3.143 3.143 0 01-.935.164c-.255 0-.425 0-.68-.083.425 1.4 1.7 2.389 3.23 2.471-1.105.824-2.635 1.318-4.25 1.318-.255 0-.595 0-.85-.083A9.914 9.914 0 005.355 14C11.73 14 15.3 8.647 15.3 3.953v-.494a4.825 4.825 0 001.7-1.73" fill="#31ADF4"/>
</svg>
