<svg width="29" height="30" xmlns="http://www.w3.org/2000/svg">
    <g fill="none" fill-rule="evenodd" opacity=".4">
        <path d="M0 0h30v30H0z"/>
        <path d="M13.105 18v-6.003h-1.116l-1.89 1.899.729.765.999-1.017V18h1.278zm3.348.108c1.449 0 2.403-.801 2.403-2.07 0-1.215-.909-1.944-1.926-1.944-.549 0-1.035.225-1.35.504v-1.503h2.871v-1.098h-4.122v3.429l.891.243a1.73 1.73 0 011.26-.495c.684 0 1.08.369 1.08.918 0 .495-.405.9-1.116.9-.63 0-1.188-.225-1.602-.648l-.702.864c.513.558 1.269.9 2.313.9z" fill="#FFF" fill-rule="nonzero"/>
        <path d="M23.331 6.49h.002a11.872 11.872 0 013.488 8.422c0 6.577-5.332 11.911-11.912 11.911C8.332 26.823 3 21.49 3 14.912 3 8.334 8.332 3 14.91 3" stroke="#FFF" stroke-width="2" stroke-linecap="round" stroke-linejoin="round"/>
        <path fill="#FFF" d="M15 6V0l5 3z"/>
    </g>
</svg>
