<svg width="28" height="28" viewBox="0 0 28 28" fill="none" xmlns="http://www.w3.org/2000/svg">
<path d="M16.0805 21.2343C16.1073 21.366 16.1609 21.5242 16.1609 21.6559C16.1609 22.2884 15.6517 22.7892 15.0353 22.7892C14.5529 22.7892 14.1241 22.4993 13.9633 22.0776L12.6768 18.7833H3.48411L2.19767 22.0776C2.06367 22.4993 1.63485 22.7892 1.15244 22.7892C0.509217 22.7892 0 22.2884 0 21.6823C0 21.5505 0.0536018 21.3924 0.107204 21.2343L6.27141 6.2123C6.56622 5.50073 7.26304 5 8.09387 5C8.9247 5 9.62152 5.50073 9.88953 6.2123L16.0805 21.2343ZM4.26134 16.8331H11.9264L8.09387 7.05564L4.26134 16.8331Z" fill="#B3B3B3"/>
<path d="M22.9882 9.63836C25.7219 9.63836 28 10.8507 28 13.9341V21.8141C28 22.3411 27.5444 22.7892 26.9816 22.7892C26.4455 22.7892 25.9899 22.3411 25.9899 21.8141V21.2343C24.9715 22.3938 23.4706 23 21.7018 23C19.5041 23 17.1724 21.5505 17.1724 18.7833C17.1724 15.937 19.5041 14.593 21.7018 14.593C23.4706 14.593 24.9447 15.1464 25.9899 16.3324V14.0395C25.9899 12.3265 24.5963 11.3514 22.7202 11.3514C21.4338 11.3514 20.3617 11.7204 19.3433 12.6164C19.2093 12.6955 19.0217 12.7745 18.8073 12.7745C18.3517 12.7745 17.9765 12.4056 17.9765 11.9575C17.9765 11.694 18.1373 11.4305 18.3249 11.2987C19.6381 10.1654 21.139 9.63836 22.9882 9.63836ZM22.4254 21.5769C23.8459 21.5769 25.2127 21.0498 25.9899 19.9956V17.5974C25.2127 16.5432 23.8459 16.0161 22.4254 16.0161C20.5494 16.0161 19.2361 17.1757 19.2361 18.8097C19.2361 20.4173 20.5494 21.5769 22.4254 21.5769Z" fill="#B3B3B3"/>
</svg>
