<svg width="29" height="29" viewBox="0 0 29 29" fill="none" xmlns="http://www.w3.org/2000/svg">
<path fill-rule="evenodd" clip-rule="evenodd" d="M6 14.5C6 19.2222 9.77778 23 14.5 23C19.2222 23 23 19.2222 23 14.5C23 9.77778 19.2222 6 14.5 6C9.77778 6 6 9.77778 6 14.5ZM14.9722 19.1276C14.9722 19.1276 14.1222 16.9554 13.0833 16.011C12.2738 15.3364 10.8861 14.9027 10.1591 14.6755C9.86837 14.5847 9.68333 14.5268 9.68333 14.4999C9.21111 14.311 9.21111 14.0276 9.77778 13.8387L17.1444 11.0999C17.5222 11.0054 17.8056 11.1943 17.7111 11.761L15.7278 18.7499C15.6333 19.2221 15.35 19.3165 14.9722 19.1276Z" fill="white"/>
</svg>
