<svg width="30" height="30" xmlns="http://www.w3.org/2000/svg">
    <g fill="none" fill-rule="evenodd">
        <path d="M0 0h30v30H0z"/>
        <path d="M8.92 18.67v-4.84l-1.11 1.13-.81-.85L9.1 12h1.24v6.67H8.92zM12.29 16v-2.77l-.68.69-.54-.58L12.43 12h.83v4h-.97zm.85 2.67h-.76L16.64 12h.77l-4.27 6.67zm3.01 0v-.7c1.73-1.21 2.15-1.6 2.15-2.04 0-.37-.29-.55-.67-.55-.47 0-.89.25-1.09.5l-.5-.61c.42-.47 1.06-.66 1.61-.66.92 0 1.61.44 1.61 1.25 0 .65-.56 1.22-1.72 2.04h1.75v.77h-3.14zm6.04-2.78l-1.4 1.41-.57-.55 1.41-1.42-1.41-1.41.57-.56 1.4 1.42 1.41-1.42.56.56-1.41 1.41 1.41 1.42-.56.55-1.41-1.41z" fill="#B3B3B3" fill-rule="nonzero"/>
        <circle stroke="#B3B3B3" stroke-width="2" stroke-linecap="round" stroke-linejoin="round" cx="15" cy="15" r="12"/>
    </g>
</svg>
