<svg width="17" height="15" xmlns="http://www.w3.org/2000/svg">
    <g fill="#D9D9D9">
        <path d="M15.684 7.676c0-.508-.041-1.02-.13-1.52h-7.05v2.88h4.038a3.46 3.46 0 01-1.494 2.272v1.868h2.409c1.415-1.302 2.228-3.225 2.228-5.5z"/>
        <path d="M8.503 14.98c2.016 0 3.717-.661 4.956-1.804l-2.41-1.868c-.67.456-1.535.714-2.544.714-1.95 0-3.604-1.316-4.197-3.085H1.82v1.926a7.478 7.478 0 006.682 4.118z"/>
        <path d="M4.305 8.937a4.478 4.478 0 010-2.863V4.148H1.82a7.483 7.483 0 000 6.715l2.484-1.926z"/>
        <path d="M8.503 2.986a4.063 4.063 0 012.868 1.121l2.134-2.134A7.186 7.186 0 008.503.027 7.475 7.475 0 001.82 4.148l2.484 1.926c.59-1.772 2.247-3.088 4.198-3.088z"/>
    </g>
</svg>
