<svg width="30" height="30" xmlns="http://www.w3.org/2000/svg">
    <g fill="none" fill-rule="evenodd" opacity=".4">
        <path d="M0 0h30v30H0z"/>
        <path d="M10.147 19v-1.158c2.685-2.078 3.471-2.792 3.471-3.64 0-.6-.52-.9-1.061-.9-.748 0-1.318.311-1.76.797L10 13.127c.64-.775 1.613-1.127 2.527-1.127 1.396 0 2.507.827 2.507 2.202 0 1.18-.924 2.203-2.625 3.506h2.675V19h-4.937zm7.916-2.874l-1.377 1.457-.56-.568 1.386-1.468-1.386-1.458.56-.58 1.377 1.469 1.386-1.468.551.579-1.386 1.458L20 17.015l-.55.568-1.387-1.457z" fill="#FFF" fill-rule="nonzero"/>
        <circle stroke="#FFF" stroke-width="2" stroke-linecap="round" stroke-linejoin="round" cx="15" cy="15" r="12"/>
    </g>
</svg>
