<svg width="92" height="20" xmlns="http://www.w3.org/2000/svg">
    <path d="M9.987 17.807l4.367 1.382V8.34h2.81v9.466l4.342 1.382 2.835-3.838h-2.81V6.012L17.19 4.503l-2.835 3.326V6.012l-4.342-1.509-2.835 3.326V6.012L2.835 4.503 0 8.341h2.81v9.466l4.367 1.382V8.34h2.81v9.466zm46.894-2.456V5.885l-4.368-1.382v13.176l4.342 1.51 2.835-3.326v1.816l4.342 1.51 2.835-3.838h-2.81V5.885L59.69 4.503v10.848h-2.81zm32.233-8.955l-4.266-1.893-5.057 2.405 5.057 1.893-6.947 3.352v5.475l4.368 1.56 2.58-3.35v1.841l4.367 1.51 2.707-3.864h-2.81V6.396zM29.986 19.19l5.006-1.996-5.006-1.868V12.64l6.564-3.173-3.73-4.963-7.202 3.454v9.364l4.368 1.868zm46.97-4.145l-5.313-1.612 4.981-6.345-6.232-2.584-3.27 4.145 5.339 1.637-5.083 6.32 6.309 2.584 3.27-4.145zm5.313.307v-3.787l2.58-1.228v5.015h-2.58zM29.986 6.985l2.196 3.019-2.196 1.049V6.985zm7.687 10.336l4.368 1.868 7.177-2.866V4.99L37.673 0v4.419l7.178 2.84v9.09l-2.81-1.024V7.343l-4.368 1.382v8.596z" fill="#EAAF6A" fill-rule="evenodd"/>
</svg>
